<?xml version="1.0" standalone="no"?>
<!DOCTYPE svg PUBLIC "-//W3C//DTD SVG 20010904//EN"
 "http://www.w3.org/TR/2001/REC-SVG-20010904/DTD/svg10.dtd">
<svg version="1.0" xmlns="http://www.w3.org/2000/svg"
 width="223.000000pt" height="213.000000pt" viewBox="0 0 223.000000 213.000000"
 preserveAspectRatio="xMidYMid meet">

<g transform="translate(0.000000,213.000000) scale(0.100000,-0.100000)"
fill="#000000" stroke="none">
<path d="M965 2119 c-236 -30 -469 -143 -642 -312 -144 -140 -239 -303 -290
-495 -22 -84 -26 -118 -26 -247 0 -129 4 -163 26 -247 51 -195 149 -359 295
-500 101 -97 166 -141 294 -203 432 -207 945 -124 1285 208 144 140 239 303
290 495 22 84 26 118 26 247 0 129 -4 163 -26 247 -51 195 -149 359 -295 500
-101 97 -166 141 -294 203 -202 96 -420 132 -643 104z m338 -104 c410 -71 736
-386 813 -783 94 -487 -231 -969 -743 -1103 -111 -29 -320 -36 -439 -15 -417
72 -743 385 -820 784 -18 94 -18 240 0 334 80 414 410 719 856 791 62 10 255
6 333 -8z"/>
<path d="M1285 1090 c-154 -154 -283 -279 -286 -278 -3 2 -70 72 -149 156
-120 128 -148 152 -172 152 -32 0 -57 -37 -42 -63 12 -20 324 -350 342 -360 7
-5 23 -6 35 -3 12 3 157 143 321 312 l300 306 -15 27 c-8 14 -24 27 -34 29
-15 2 -98 -76 -300 -278z"/>
</g>
</svg>
